<?xml version="1.0" standalone="no"?>
<!DOCTYPE svg PUBLIC "-//W3C//DTD SVG 20010904//EN"
 "http://www.w3.org/TR/2001/REC-SVG-20010904/DTD/svg10.dtd">
<svg version="1.0" xmlns="http://www.w3.org/2000/svg"
 width="1280.000000pt" height="795.000000pt" viewBox="0 0 1280.000000 795.000000"
 preserveAspectRatio="xMidYMid meet">
<g transform="translate(0.000000,795.000000) scale(0.100000,-0.100000)"
fill="#000000" stroke="none">
<path d="M0 3975 l0 -3975 6400 0 6400 0 0 3975 0 3975 -6400 0 -6400 0 0
-3975z m11685 3407 c0 -12 -5271 -4222 -5285 -4222 -5 0 -5253 4180 -5279
4205 -7 7 -10 18 -7 24 5 8 1465 10 5289 9 4364 -3 5282 -5 5282 -16z m-9149
-1837 c1077 -855 1960 -1561 1962 -1569 4 -16 -3901 -3081 -3926 -3081 -16 0
-17 213 -20 3090 -1 1700 0 3096 3 3103 2 6 8 12 13 12 5 0 890 -700 1968
-1555z m9712 -1549 c2 -2699 0 -3097 -12 -3102 -19 -7 -3938 3064 -3934 3083
4 18 3919 3124 3933 3120 7 -3 11 -964 13 -3101z m-6573 -946 c393 -311 720
-565 725 -565 6 0 332 254 726 565 462 365 723 565 737 565 27 -1 3920 -3052
3912 -3066 -8 -12 -10742 -12 -10750 0 -8 14 3896 3072 3917 3069 9 -2 339
-257 733 -568z"/>
</g>
</svg>
